<svg xmlns="http://www.w3.org/2000/svg" viewBox="0 0 1187 63" width="1187" height="63" role="img" aria-label="Background"><style>
    .c{fill:#171a1f;animation:wave 8.0s linear infinite}
    .q{fill:#171a1f;animation:soft 8.0s linear infinite}
    .t{fill:#171a1f;animation:twinkle 5s ease-in-out infinite}
    @keyframes wave{
      0%,52%{fill:#171a1f} 64%{fill:#39482e} 74%{fill:#678549}
      81%{fill:#9ece6a} 85%{fill:#daecc6} 89%{fill:#9ece6a}
      95%{fill:#678549} 100%{fill:#171a1f}
    }
    @keyframes soft{
      0%,60%{fill:#171a1f} 80%{fill:#39482e} 86%{fill:#678549} 94%{fill:#39482e} 100%{fill:#171a1f}
    }
    @keyframes twinkle{
      0%,70%,100%{fill:#171a1f} 80%{fill:#bbdd97} 88%{fill:#678549}
    }
    .d0{animation-delay:-0.000s}.d1{animation-delay:-0.125s}.d2{animation-delay:-0.250s}.d3{animation-delay:-0.375s}.d4{animation-delay:-0.500s}.d5{animation-delay:-0.625s}.d6{animation-delay:-0.750s}.d7{animation-delay:-0.875s}.d8{animation-delay:-1.000s}.d9{animation-delay:-1.125s}.d10{animation-delay:-1.250s}.d11{animation-delay:-1.375s}.d12{animation-delay:-1.500s}.d13{animation-delay:-1.625s}.d14{animation-delay:-1.750s}.d15{animation-delay:-1.875s}.d16{animation-delay:-2.000s}.d17{animation-delay:-2.125s}.d18{animation-delay:-2.250s}.d19{animation-delay:-2.375s}.d20{animation-delay:-2.500s}.d21{animation-delay:-2.625s}.d22{animation-delay:-2.750s}.d23{animation-delay:-2.875s}.d24{animation-delay:-3.000s}.d25{animation-delay:-3.125s}.d26{animation-delay:-3.250s}.d27{animation-delay:-3.375s}.d28{animation-delay:-3.500s}.d29{animation-delay:-3.625s}.d30{animation-delay:-3.750s}.d31{animation-delay:-3.875s}.d32{animation-delay:-4.000s}.d33{animation-delay:-4.125s}.d34{animation-delay:-4.250s}.d35{animation-delay:-4.375s}.d36{animation-delay:-4.500s}.d37{animation-delay:-4.625s}.d38{animation-delay:-4.750s}.d39{animation-delay:-4.875s}.d40{animation-delay:-5.000s}.d41{animation-delay:-5.125s}.d42{animation-delay:-5.250s}.d43{animation-delay:-5.375s}.d44{animation-delay:-5.500s}.d45{animation-delay:-5.625s}.d46{animation-delay:-5.750s}.d47{animation-delay:-5.875s}.d48{animation-delay:-6.000s}.d49{animation-delay:-6.125s}.d50{animation-delay:-6.250s}.d51{animation-delay:-6.375s}.d52{animation-delay:-6.500s}.d53{animation-delay:-6.625s}.d54{animation-delay:-6.750s}.d55{animation-delay:-6.875s}.d56{animation-delay:-7.000s}.d57{animation-delay:-7.125s}.d58{animation-delay:-7.250s}.d59{animation-delay:-7.375s}.d60{animation-delay:-7.500s}.d61{animation-delay:-7.625s}.d62{animation-delay:-7.750s}.d63{animation-delay:-7.875s}
    
    @media (prefers-reduced-motion:reduce){.c,.q,.t,.caret{animation:none}}
    </style><rect fill="#bbdd97" x="0" y="0" width="9" height="9"/><rect fill="#bbdd97" x="9" y="0" width="9" height="9"/><rect fill="#bbdd97" x="18" y="0" width="9" height="9"/><rect fill="#bbdd97" x="27" y="0" width="9" height="9"/><rect fill="#bbdd97" x="0" y="9" width="9" height="9"/><rect fill="#bbdd97" x="36" y="9" width="9" height="9"/><rect fill="#9ece6a" x="0" y="18" width="9" height="9"/><rect fill="#9ece6a" x="36" y="18" width="9" height="9"/><rect fill="#9ece6a" x="0" y="27" width="9" height="9"/><rect fill="#9ece6a" x="9" y="27" width="9" height="9"/><rect fill="#9ece6a" x="18" y="27" width="9" height="9"/><rect fill="#9ece6a" x="27" y="27" width="9" height="9"/><rect fill="#9ece6a" x="0" y="36" width="9" height="9"/><rect fill="#9ece6a" x="36" y="36" width="9" height="9"/><rect fill="#678549" x="0" y="45" width="9" height="9"/><rect fill="#678549" x="36" y="45" width="9" height="9"/><rect fill="#678549" x="0" y="54" width="9" height="9"/><rect fill="#678549" x="9" y="54" width="9" height="9"/><rect fill="#678549" x="18" y="54" width="9" height="9"/><rect fill="#678549" x="27" y="54" width="9" height="9"/><rect fill="#bbdd97" x="63" y="0" width="9" height="9"/><rect fill="#bbdd97" x="72" y="0" width="9" height="9"/><rect fill="#bbdd97" x="81" y="0" width="9" height="9"/><rect fill="#bbdd97" x="54" y="9" width="9" height="9"/><rect fill="#bbdd97" x="90" y="9" width="9" height="9"/><rect fill="#9ece6a" x="54" y="18" width="9" height="9"/><rect fill="#9ece6a" x="90" y="18" width="9" height="9"/><rect fill="#9ece6a" x="54" y="27" width="9" height="9"/><rect fill="#9ece6a" x="63" y="27" width="9" height="9"/><rect fill="#9ece6a" x="72" y="27" width="9" height="9"/><rect fill="#9ece6a" x="81" y="27" width="9" height="9"/><rect fill="#9ece6a" x="90" y="27" width="9" height="9"/><rect fill="#9ece6a" x="54" y="36" width="9" height="9"/><rect fill="#9ece6a" x="90" y="36" width="9" height="9"/><rect fill="#678549" x="54" y="45" width="9" height="9"/><rect fill="#678549" x="90" y="45" width="9" height="9"/><rect fill="#678549" x="54" y="54" width="9" height="9"/><rect fill="#678549" x="90" y="54" width="9" height="9"/><rect fill="#bbdd97" x="117" y="0" width="9" height="9"/><rect fill="#bbdd97" x="126" y="0" width="9" height="9"/><rect fill="#bbdd97" x="135" y="0" width="9" height="9"/><rect fill="#bbdd97" x="108" y="9" width="9" height="9"/><rect fill="#bbdd97" x="144" y="9" width="9" height="9"/><rect fill="#9ece6a" x="108" y="18" width="9" height="9"/><rect fill="#9ece6a" x="108" y="27" width="9" height="9"/><rect fill="#9ece6a" x="108" y="36" width="9" height="9"/><rect fill="#678549" x="108" y="45" width="9" height="9"/><rect fill="#678549" x="144" y="45" width="9" height="9"/><rect fill="#678549" x="117" y="54" width="9" height="9"/><rect fill="#678549" x="126" y="54" width="9" height="9"/><rect fill="#678549" x="135" y="54" width="9" height="9"/><rect fill="#bbdd97" x="162" y="0" width="9" height="9"/><rect fill="#bbdd97" x="198" y="0" width="9" height="9"/><rect fill="#bbdd97" x="162" y="9" width="9" height="9"/><rect fill="#bbdd97" x="189" y="9" width="9" height="9"/><rect fill="#9ece6a" x="162" y="18" width="9" height="9"/><rect fill="#9ece6a" x="180" y="18" width="9" height="9"/><rect fill="#9ece6a" x="162" y="27" width="9" height="9"/><rect fill="#9ece6a" x="171" y="27" width="9" height="9"/><rect fill="#9ece6a" x="162" y="36" width="9" height="9"/><rect fill="#9ece6a" x="180" y="36" width="9" height="9"/><rect fill="#678549" x="162" y="45" width="9" height="9"/><rect fill="#678549" x="189" y="45" width="9" height="9"/><rect fill="#678549" x="162" y="54" width="9" height="9"/><rect fill="#678549" x="198" y="54" width="9" height="9"/><rect fill="#bbdd97" x="225" y="0" width="9" height="9"/><rect fill="#bbdd97" x="234" y="0" width="9" height="9"/><rect fill="#bbdd97" x="243" y="0" width="9" height="9"/><rect fill="#bbdd97" x="216" y="9" width="9" height="9"/><rect fill="#bbdd97" x="252" y="9" width="9" height="9"/><rect fill="#9ece6a" x="216" y="18" width="9" height="9"/><rect fill="#9ece6a" x="216" y="27" width="9" height="9"/><rect fill="#9ece6a" x="234" y="27" width="9" height="9"/><rect fill="#9ece6a" x="243" y="27" width="9" height="9"/><rect fill="#9ece6a" x="252" y="27" width="9" height="9"/><rect fill="#9ece6a" x="216" y="36" width="9" height="9"/><rect fill="#9ece6a" x="252" y="36" width="9" height="9"/><rect fill="#678549" x="216" y="45" width="9" height="9"/><rect fill="#678549" x="252" y="45" width="9" height="9"/><rect fill="#678549" x="225" y="54" width="9" height="9"/><rect fill="#678549" x="234" y="54" width="9" height="9"/><rect fill="#678549" x="243" y="54" width="9" height="9"/><rect fill="#bbdd97" x="270" y="0" width="9" height="9"/><rect fill="#bbdd97" x="279" y="0" width="9" height="9"/><rect fill="#bbdd97" x="288" y="0" width="9" height="9"/><rect fill="#bbdd97" x="297" y="0" width="9" height="9"/><rect fill="#bbdd97" x="270" y="9" width="9" height="9"/><rect fill="#bbdd97" x="306" y="9" width="9" height="9"/><rect fill="#9ece6a" x="270" y="18" width="9" height="9"/><rect fill="#9ece6a" x="306" y="18" width="9" height="9"/><rect fill="#9ece6a" x="270" y="27" width="9" height="9"/><rect fill="#9ece6a" x="279" y="27" width="9" height="9"/><rect fill="#9ece6a" x="288" y="27" width="9" height="9"/><rect fill="#9ece6a" x="297" y="27" width="9" height="9"/><rect fill="#9ece6a" x="270" y="36" width="9" height="9"/><rect fill="#9ece6a" x="288" y="36" width="9" height="9"/><rect fill="#678549" x="270" y="45" width="9" height="9"/><rect fill="#678549" x="297" y="45" width="9" height="9"/><rect fill="#678549" x="270" y="54" width="9" height="9"/><rect fill="#678549" x="306" y="54" width="9" height="9"/><rect fill="#bbdd97" x="333" y="0" width="9" height="9"/><rect fill="#bbdd97" x="342" y="0" width="9" height="9"/><rect fill="#bbdd97" x="351" y="0" width="9" height="9"/><rect fill="#bbdd97" x="324" y="9" width="9" height="9"/><rect fill="#bbdd97" x="360" y="9" width="9" height="9"/><rect fill="#9ece6a" x="324" y="18" width="9" height="9"/><rect fill="#9ece6a" x="360" y="18" width="9" height="9"/><rect fill="#9ece6a" x="324" y="27" width="9" height="9"/><rect fill="#9ece6a" x="360" y="27" width="9" height="9"/><rect fill="#9ece6a" x="324" y="36" width="9" height="9"/><rect fill="#9ece6a" x="360" y="36" width="9" height="9"/><rect fill="#678549" x="324" y="45" width="9" height="9"/><rect fill="#678549" x="360" y="45" width="9" height="9"/><rect fill="#678549" x="333" y="54" width="9" height="9"/><rect fill="#678549" x="342" y="54" width="9" height="9"/><rect fill="#678549" x="351" y="54" width="9" height="9"/><rect fill="#bbdd97" x="378" y="0" width="9" height="9"/><rect fill="#bbdd97" x="414" y="0" width="9" height="9"/><rect fill="#bbdd97" x="378" y="9" width="9" height="9"/><rect fill="#bbdd97" x="414" y="9" width="9" height="9"/><rect fill="#9ece6a" x="378" y="18" width="9" height="9"/><rect fill="#9ece6a" x="414" y="18" width="9" height="9"/><rect fill="#9ece6a" x="378" y="27" width="9" height="9"/><rect fill="#9ece6a" x="414" y="27" width="9" height="9"/><rect fill="#9ece6a" x="378" y="36" width="9" height="9"/><rect fill="#9ece6a" x="414" y="36" width="9" height="9"/><rect fill="#678549" x="378" y="45" width="9" height="9"/><rect fill="#678549" x="414" y="45" width="9" height="9"/><rect fill="#678549" x="387" y="54" width="9" height="9"/><rect fill="#678549" x="396" y="54" width="9" height="9"/><rect fill="#678549" x="405" y="54" width="9" height="9"/><rect fill="#bbdd97" x="432" y="0" width="9" height="9"/><rect fill="#bbdd97" x="468" y="0" width="9" height="9"/><rect fill="#bbdd97" x="432" y="9" width="9" height="9"/><rect fill="#bbdd97" x="441" y="9" width="9" height="9"/><rect fill="#bbdd97" x="468" y="9" width="9" height="9"/><rect fill="#9ece6a" x="432" y="18" width="9" height="9"/><rect fill="#9ece6a" x="450" y="18" width="9" height="9"/><rect fill="#9ece6a" x="468" y="18" width="9" height="9"/><rect fill="#9ece6a" x="432" y="27" width="9" height="9"/><rect fill="#9ece6a" x="459" y="27" width="9" height="9"/><rect fill="#9ece6a" x="468" y="27" width="9" height="9"/><rect fill="#9ece6a" x="432" y="36" width="9" height="9"/><rect fill="#9ece6a" x="468" y="36" width="9" height="9"/><rect fill="#678549" x="432" y="45" width="9" height="9"/><rect fill="#678549" x="468" y="45" width="9" height="9"/><rect fill="#678549" x="432" y="54" width="9" height="9"/><rect fill="#678549" x="468" y="54" width="9" height="9"/><rect fill="#bbdd97" x="486" y="0" width="9" height="9"/><rect fill="#bbdd97" x="495" y="0" width="9" height="9"/><rect fill="#bbdd97" x="504" y="0" width="9" height="9"/><rect fill="#bbdd97" x="513" y="0" width="9" height="9"/><rect fill="#bbdd97" x="486" y="9" width="9" height="9"/><rect fill="#bbdd97" x="522" y="9" width="9" height="9"/><rect fill="#9ece6a" x="486" y="18" width="9" height="9"/><rect fill="#9ece6a" x="522" y="18" width="9" height="9"/><rect fill="#9ece6a" x="486" y="27" width="9" height="9"/><rect fill="#9ece6a" x="522" y="27" width="9" height="9"/><rect fill="#9ece6a" x="486" y="36" width="9" height="9"/><rect fill="#9ece6a" x="522" y="36" width="9" height="9"/><rect fill="#678549" x="486" y="45" width="9" height="9"/><rect fill="#678549" x="522" y="45" width="9" height="9"/><rect fill="#678549" x="486" y="54" width="9" height="9"/><rect fill="#678549" x="495" y="54" width="9" height="9"/><rect fill="#678549" x="504" y="54" width="9" height="9"/><rect fill="#678549" x="513" y="54" width="9" height="9"/><rect class="c d0" x="558" y="26" width="11" height="11"/><rect class="c d2" x="572" y="26" width="11" height="11"/><rect class="c d4" x="586" y="26" width="11" height="11"/><rect class="c d6" x="600" y="26" width="11" height="11"/><rect class="c d8" x="614" y="26" width="11" height="11"/><rect class="c d10" x="628" y="26" width="11" height="11"/><rect class="c d12" x="642" y="26" width="11" height="11"/><rect class="c d14" x="656" y="26" width="11" height="11"/><rect class="c d16" x="670" y="26" width="11" height="11"/><rect class="c d18" x="684" y="26" width="11" height="11"/><rect class="c d20" x="698" y="26" width="11" height="11"/><rect class="c d22" x="712" y="26" width="11" height="11"/><rect class="c d24" x="726" y="26" width="11" height="11"/><rect class="c d26" x="740" y="26" width="11" height="11"/><rect class="c d28" x="754" y="26" width="11" height="11"/><rect class="c d30" x="768" y="26" width="11" height="11"/><rect class="c d32" x="782" y="26" width="11" height="11"/><rect class="c d34" x="796" y="26" width="11" height="11"/><rect class="c d36" x="810" y="26" width="11" height="11"/><rect class="c d38" x="824" y="26" width="11" height="11"/><rect class="c d40" x="838" y="26" width="11" height="11"/><rect class="c d42" x="852" y="26" width="11" height="11"/><rect class="c d44" x="866" y="26" width="11" height="11"/><rect class="c d46" x="880" y="26" width="11" height="11"/><rect class="c d48" x="894" y="26" width="11" height="11"/><rect class="c d50" x="908" y="26" width="11" height="11"/><rect class="c d52" x="922" y="26" width="11" height="11"/><rect class="c d54" x="936" y="26" width="11" height="11"/><rect class="c d56" x="950" y="26" width="11" height="11"/><rect class="c d58" x="964" y="26" width="11" height="11"/><rect class="c d60" x="978" y="26" width="11" height="11"/><rect class="c d62" x="992" y="26" width="11" height="11"/><rect class="c d0" x="1006" y="26" width="11" height="11"/><rect class="c d2" x="1020" y="26" width="11" height="11"/><rect class="c d4" x="1034" y="26" width="11" height="11"/><rect class="c d6" x="1048" y="26" width="11" height="11"/><rect class="c d8" x="1062" y="26" width="11" height="11"/><rect class="c d10" x="1076" y="26" width="11" height="11"/><rect class="c d12" x="1090" y="26" width="11" height="11"/><rect class="c d14" x="1104" y="26" width="11" height="11"/><rect class="c d16" x="1118" y="26" width="11" height="11"/><rect class="c d18" x="1132" y="26" width="11" height="11"/><rect class="c d20" x="1146" y="26" width="11" height="11"/><rect class="c d22" x="1160" y="26" width="11" height="11"/><rect class="c d24" x="1174" y="26" width="11" height="11"/></svg>