<svg xmlns="http://www.w3.org/2000/svg" viewBox="0 0 1187 63" width="1187" height="63" role="img" aria-label="Stack"><style>
    .c{fill:#171a1f;animation:wave 8.0s linear infinite}
    .q{fill:#171a1f;animation:soft 8.0s linear infinite}
    .t{fill:#171a1f;animation:twinkle 5s ease-in-out infinite}
    @keyframes wave{
      0%,52%{fill:#171a1f} 64%{fill:#39482e} 74%{fill:#678549}
      81%{fill:#9ece6a} 85%{fill:#daecc6} 89%{fill:#9ece6a}
      95%{fill:#678549} 100%{fill:#171a1f}
    }
    @keyframes soft{
      0%,60%{fill:#171a1f} 80%{fill:#39482e} 86%{fill:#678549} 94%{fill:#39482e} 100%{fill:#171a1f}
    }
    @keyframes twinkle{
      0%,70%,100%{fill:#171a1f} 80%{fill:#bbdd97} 88%{fill:#678549}
    }
    .d0{animation-delay:-0.000s}.d1{animation-delay:-0.125s}.d2{animation-delay:-0.250s}.d3{animation-delay:-0.375s}.d4{animation-delay:-0.500s}.d5{animation-delay:-0.625s}.d6{animation-delay:-0.750s}.d7{animation-delay:-0.875s}.d8{animation-delay:-1.000s}.d9{animation-delay:-1.125s}.d10{animation-delay:-1.250s}.d11{animation-delay:-1.375s}.d12{animation-delay:-1.500s}.d13{animation-delay:-1.625s}.d14{animation-delay:-1.750s}.d15{animation-delay:-1.875s}.d16{animation-delay:-2.000s}.d17{animation-delay:-2.125s}.d18{animation-delay:-2.250s}.d19{animation-delay:-2.375s}.d20{animation-delay:-2.500s}.d21{animation-delay:-2.625s}.d22{animation-delay:-2.750s}.d23{animation-delay:-2.875s}.d24{animation-delay:-3.000s}.d25{animation-delay:-3.125s}.d26{animation-delay:-3.250s}.d27{animation-delay:-3.375s}.d28{animation-delay:-3.500s}.d29{animation-delay:-3.625s}.d30{animation-delay:-3.750s}.d31{animation-delay:-3.875s}.d32{animation-delay:-4.000s}.d33{animation-delay:-4.125s}.d34{animation-delay:-4.250s}.d35{animation-delay:-4.375s}.d36{animation-delay:-4.500s}.d37{animation-delay:-4.625s}.d38{animation-delay:-4.750s}.d39{animation-delay:-4.875s}.d40{animation-delay:-5.000s}.d41{animation-delay:-5.125s}.d42{animation-delay:-5.250s}.d43{animation-delay:-5.375s}.d44{animation-delay:-5.500s}.d45{animation-delay:-5.625s}.d46{animation-delay:-5.750s}.d47{animation-delay:-5.875s}.d48{animation-delay:-6.000s}.d49{animation-delay:-6.125s}.d50{animation-delay:-6.250s}.d51{animation-delay:-6.375s}.d52{animation-delay:-6.500s}.d53{animation-delay:-6.625s}.d54{animation-delay:-6.750s}.d55{animation-delay:-6.875s}.d56{animation-delay:-7.000s}.d57{animation-delay:-7.125s}.d58{animation-delay:-7.250s}.d59{animation-delay:-7.375s}.d60{animation-delay:-7.500s}.d61{animation-delay:-7.625s}.d62{animation-delay:-7.750s}.d63{animation-delay:-7.875s}
    
    @media (prefers-reduced-motion:reduce){.c,.q,.t,.caret{animation:none}}
    </style><rect fill="#bbdd97" x="9" y="0" width="9" height="9"/><rect fill="#bbdd97" x="18" y="0" width="9" height="9"/><rect fill="#bbdd97" x="27" y="0" width="9" height="9"/><rect fill="#bbdd97" x="36" y="0" width="9" height="9"/><rect fill="#bbdd97" x="0" y="9" width="9" height="9"/><rect fill="#9ece6a" x="0" y="18" width="9" height="9"/><rect fill="#9ece6a" x="9" y="27" width="9" height="9"/><rect fill="#9ece6a" x="18" y="27" width="9" height="9"/><rect fill="#9ece6a" x="27" y="27" width="9" height="9"/><rect fill="#9ece6a" x="36" y="36" width="9" height="9"/><rect fill="#678549" x="36" y="45" width="9" height="9"/><rect fill="#678549" x="0" y="54" width="9" height="9"/><rect fill="#678549" x="9" y="54" width="9" height="9"/><rect fill="#678549" x="18" y="54" width="9" height="9"/><rect fill="#678549" x="27" y="54" width="9" height="9"/><rect fill="#bbdd97" x="54" y="0" width="9" height="9"/><rect fill="#bbdd97" x="63" y="0" width="9" height="9"/><rect fill="#bbdd97" x="72" y="0" width="9" height="9"/><rect fill="#bbdd97" x="81" y="0" width="9" height="9"/><rect fill="#bbdd97" x="90" y="0" width="9" height="9"/><rect fill="#bbdd97" x="72" y="9" width="9" height="9"/><rect fill="#9ece6a" x="72" y="18" width="9" height="9"/><rect fill="#9ece6a" x="72" y="27" width="9" height="9"/><rect fill="#9ece6a" x="72" y="36" width="9" height="9"/><rect fill="#678549" x="72" y="45" width="9" height="9"/><rect fill="#678549" x="72" y="54" width="9" height="9"/><rect fill="#bbdd97" x="117" y="0" width="9" height="9"/><rect fill="#bbdd97" x="126" y="0" width="9" height="9"/><rect fill="#bbdd97" x="135" y="0" width="9" height="9"/><rect fill="#bbdd97" x="108" y="9" width="9" height="9"/><rect fill="#bbdd97" x="144" y="9" width="9" height="9"/><rect fill="#9ece6a" x="108" y="18" width="9" height="9"/><rect fill="#9ece6a" x="144" y="18" width="9" height="9"/><rect fill="#9ece6a" x="108" y="27" width="9" height="9"/><rect fill="#9ece6a" x="117" y="27" width="9" height="9"/><rect fill="#9ece6a" x="126" y="27" width="9" height="9"/><rect fill="#9ece6a" x="135" y="27" width="9" height="9"/><rect fill="#9ece6a" x="144" y="27" width="9" height="9"/><rect fill="#9ece6a" x="108" y="36" width="9" height="9"/><rect fill="#9ece6a" x="144" y="36" width="9" height="9"/><rect fill="#678549" x="108" y="45" width="9" height="9"/><rect fill="#678549" x="144" y="45" width="9" height="9"/><rect fill="#678549" x="108" y="54" width="9" height="9"/><rect fill="#678549" x="144" y="54" width="9" height="9"/><rect fill="#bbdd97" x="171" y="0" width="9" height="9"/><rect fill="#bbdd97" x="180" y="0" width="9" height="9"/><rect fill="#bbdd97" x="189" y="0" width="9" height="9"/><rect fill="#bbdd97" x="162" y="9" width="9" height="9"/><rect fill="#bbdd97" x="198" y="9" width="9" height="9"/><rect fill="#9ece6a" x="162" y="18" width="9" height="9"/><rect fill="#9ece6a" x="162" y="27" width="9" height="9"/><rect fill="#9ece6a" x="162" y="36" width="9" height="9"/><rect fill="#678549" x="162" y="45" width="9" height="9"/><rect fill="#678549" x="198" y="45" width="9" height="9"/><rect fill="#678549" x="171" y="54" width="9" height="9"/><rect fill="#678549" x="180" y="54" width="9" height="9"/><rect fill="#678549" x="189" y="54" width="9" height="9"/><rect fill="#bbdd97" x="216" y="0" width="9" height="9"/><rect fill="#bbdd97" x="252" y="0" width="9" height="9"/><rect fill="#bbdd97" x="216" y="9" width="9" height="9"/><rect fill="#bbdd97" x="243" y="9" width="9" height="9"/><rect fill="#9ece6a" x="216" y="18" width="9" height="9"/><rect fill="#9ece6a" x="234" y="18" width="9" height="9"/><rect fill="#9ece6a" x="216" y="27" width="9" height="9"/><rect fill="#9ece6a" x="225" y="27" width="9" height="9"/><rect fill="#9ece6a" x="216" y="36" width="9" height="9"/><rect fill="#9ece6a" x="234" y="36" width="9" height="9"/><rect fill="#678549" x="216" y="45" width="9" height="9"/><rect fill="#678549" x="243" y="45" width="9" height="9"/><rect fill="#678549" x="216" y="54" width="9" height="9"/><rect fill="#678549" x="252" y="54" width="9" height="9"/><rect class="c d0" x="288" y="26" width="11" height="11"/><rect class="c d2" x="302" y="26" width="11" height="11"/><rect class="c d4" x="316" y="26" width="11" height="11"/><rect class="c d6" x="330" y="26" width="11" height="11"/><rect class="c d8" x="344" y="26" width="11" height="11"/><rect class="c d10" x="358" y="26" width="11" height="11"/><rect class="c d12" x="372" y="26" width="11" height="11"/><rect class="c d14" x="386" y="26" width="11" height="11"/><rect class="c d16" x="400" y="26" width="11" height="11"/><rect class="c d18" x="414" y="26" width="11" height="11"/><rect class="c d20" x="428" y="26" width="11" height="11"/><rect class="c d22" x="442" y="26" width="11" height="11"/><rect class="c d24" x="456" y="26" width="11" height="11"/><rect class="c d26" x="470" y="26" width="11" height="11"/><rect class="c d28" x="484" y="26" width="11" height="11"/><rect class="c d30" x="498" y="26" width="11" height="11"/><rect class="c d32" x="512" y="26" width="11" height="11"/><rect class="c d34" x="526" y="26" width="11" height="11"/><rect class="c d36" x="540" y="26" width="11" height="11"/><rect class="c d38" x="554" y="26" width="11" height="11"/><rect class="c d40" x="568" y="26" width="11" height="11"/><rect class="c d42" x="582" y="26" width="11" height="11"/><rect class="c d44" x="596" y="26" width="11" height="11"/><rect class="c d46" x="610" y="26" width="11" height="11"/><rect class="c d48" x="624" y="26" width="11" height="11"/><rect class="c d50" x="638" y="26" width="11" height="11"/><rect class="c d52" x="652" y="26" width="11" height="11"/><rect class="c d54" x="666" y="26" width="11" height="11"/><rect class="c d56" x="680" y="26" width="11" height="11"/><rect class="c d58" x="694" y="26" width="11" height="11"/><rect class="c d60" x="708" y="26" width="11" height="11"/><rect class="c d62" x="722" y="26" width="11" height="11"/><rect class="c d0" x="736" y="26" width="11" height="11"/><rect class="c d2" x="750" y="26" width="11" height="11"/><rect class="c d4" x="764" y="26" width="11" height="11"/><rect class="c d6" x="778" y="26" width="11" height="11"/><rect class="c d8" x="792" y="26" width="11" height="11"/><rect class="c d10" x="806" y="26" width="11" height="11"/><rect class="c d12" x="820" y="26" width="11" height="11"/><rect class="c d14" x="834" y="26" width="11" height="11"/><rect class="c d16" x="848" y="26" width="11" height="11"/><rect class="c d18" x="862" y="26" width="11" height="11"/><rect class="c d20" x="876" y="26" width="11" height="11"/><rect class="c d22" x="890" y="26" width="11" height="11"/><rect class="c d24" x="904" y="26" width="11" height="11"/><rect class="c d26" x="918" y="26" width="11" height="11"/><rect class="c d28" x="932" y="26" width="11" height="11"/><rect class="c d30" x="946" y="26" width="11" height="11"/><rect class="c d32" x="960" y="26" width="11" height="11"/><rect class="c d34" x="974" y="26" width="11" height="11"/><rect class="c d36" x="988" y="26" width="11" height="11"/><rect class="c d38" x="1002" y="26" width="11" height="11"/><rect class="c d40" x="1016" y="26" width="11" height="11"/><rect class="c d42" x="1030" y="26" width="11" height="11"/><rect class="c d44" x="1044" y="26" width="11" height="11"/><rect class="c d46" x="1058" y="26" width="11" height="11"/><rect class="c d48" x="1072" y="26" width="11" height="11"/><rect class="c d50" x="1086" y="26" width="11" height="11"/><rect class="c d52" x="1100" y="26" width="11" height="11"/><rect class="c d54" x="1114" y="26" width="11" height="11"/><rect class="c d56" x="1128" y="26" width="11" height="11"/><rect class="c d58" x="1142" y="26" width="11" height="11"/><rect class="c d60" x="1156" y="26" width="11" height="11"/><rect class="c d62" x="1170" y="26" width="11" height="11"/></svg>